<?xml version="1.0" encoding="UTF-8" standalone="no"?>
<!-- Created with Friction - https://friction.graphics -->

<svg height="256" viewBox="0 0 256 256" xmlns:xlink="http://www.w3.org/1999/xlink" width="256" xmlns="http://www.w3.org/2000/svg">
 <g transform="translate(499.301 500)">
  <g transform="translate(-371.301 -372)">
   <g transform="rotate(0)">
<g transform="scale(0.315 0.315)">
 <g transform="skewX(0) skewY(0)">
  <g opacity="1" transform="translate(-499.301 -500)">
   <g id="atom">
<g transform="translate(499.301 500)">
 <g transform="translate(0 0)">
  <g transform="rotate(0)">
   <g transform="scale(1 1)">
<g transform="skewX(0) skewY(0)">
 <g opacity="1" transform="translate(-499.301 -500)">
  <g id="Group0">
   <g transform="translate(475 305)">
<g transform="translate(-96.6564 -16.8239)">
 <g transform="rotate(-120)">
  <g transform="scale(1.4 1.4)">
   <g transform="skewX(0) skewY(0)">
<g transform="translate(-475 -305)">
 <path stroke-linecap="round" stroke="rgba(204, 204, 204, 1)" id="crta6" stroke-linejoin="round" fill-rule="evenodd" d="M0 0" fill="rgba(0, 0, 230, 1)" stroke-width="18">
  <animate keySplines="0 0 1 1;0 0 1 1;0 0 1 1" repeatCount="indefinite" attributeName="d" keyTimes="0;0.312;0.472;1" dur="5s" calcMode="spline" values="M475 250C475 250 475.012 251.111 475.012 251.111;M475 250C475 250 475.012 251.111 475.012 251.111;M475 250C475 250 475 360 475 360;M475 250C475 250 475 360 475 360"/>
 </path>
 <animate keySplines="0 0 1 1;0 0 1 1;0 0.333333 1 0.666667;0 0 1 1;0 0 1 1" repeatCount="indefinite" attributeName="opacity" keyTimes="0;0.308;0.312;0.976;0.98;1" dur="5s" calcMode="spline" values="0;0;1;1;0;0"/>
</g>
   </g>
  </g>
 </g>
</g>
   </g>
   <g transform="translate(125 295)">
<g transform="translate(130.699 205)">
 <g transform="rotate(0)">
  <g transform="scale(1.4 1.4)">
   <g transform="skewX(0) skewY(0)">
<g transform="translate(-125 -295)">
 <path stroke-linecap="round" stroke="rgba(204, 204, 204, 1)" id="crta5" stroke-linejoin="round" fill-rule="evenodd" d="M0 0" fill="rgba(0, 0, 230, 1)" stroke-width="18">
  <animate keySplines="0 0 1 1;0 0 1 1;0 0 1 1" repeatCount="indefinite" attributeName="d" keyTimes="0;0.272;0.432;1" dur="5s" calcMode="spline" values="M125.021 347.549C125.021 347.549 125 350 125 350;M125.021 347.549C125.021 347.549 125 350 125 350;M125 240C125 240 125 350 125 350;M125 240C125 240 125 350 125 350"/>
 </path>
 <animate keySplines="0 0 1 1;0 0 1 1;0 0.333333 1 0.666667;0 0 1 1;0 0 1 1" repeatCount="indefinite" attributeName="opacity" keyTimes="0;0.268;0.272;0.932;0.936;1" dur="5s" calcMode="spline" values="0;0;1;1;0;0"/>
</g>
   </g>
  </g>
 </g>
</g>
   </g>
   <g transform="translate(475 305)">
<g transform="translate(-99.4606 404.081)">
 <g transform="rotate(120)">
  <g transform="scale(1.4 1.4)">
   <g transform="skewX(0) skewY(0)">
<g transform="translate(-475 -305)">
 <path stroke-linecap="round" stroke="rgba(204, 204, 204, 1)" id="crta4" stroke-linejoin="round" fill-rule="evenodd" d="M0 0" fill="rgba(0, 0, 230, 1)" stroke-width="18">
  <animate keySplines="0 0 1 1;0 0 1 1;0 0 1 1" repeatCount="indefinite" attributeName="d" keyTimes="0;0.232;0.392;1" dur="5s" calcMode="spline" values="M475 250C475 250 474.989 252.038 474.989 252.038;M475 250C475 250 474.989 252.038 474.989 252.038;M475 250C475 250 475 360 475 360;M475 250C475 250 475 360 475 360"/>
 </path>
 <animate keySplines="0 0 1 1;0 0 1 1;0 0.333333 1 0.666667;0 0 1 1;0 0 1 1" repeatCount="indefinite" attributeName="opacity" keyTimes="0;0.228;0.232;0.888;0.892;1" dur="5s" calcMode="spline" values="0;0;1;1;0;0"/>
</g>
   </g>
  </g>
 </g>
</g>
   </g>
   <g transform="translate(475 305)">
<g transform="translate(151.061 404.184)">
 <g transform="rotate(-120)">
  <g transform="scale(1.4 1.4)">
   <g transform="skewX(0) skewY(0)">
<g transform="translate(-475 -305)">
 <path stroke-linecap="round" stroke="rgba(204, 204, 204, 1)" id="crta3" stroke-linejoin="round" fill-rule="evenodd" d="M0 0" fill="rgba(0, 0, 230, 1)" stroke-width="18">
  <animate keySplines="0 0 1 1;0 0 1 1;0 0 1 1" repeatCount="indefinite" attributeName="d" keyTimes="0;0.192;0.352;1" dur="5s" calcMode="spline" values="M474.918 357.816C474.918 357.816 475 360 475 360;M474.918 357.816C474.918 357.816 475 360 475 360;M475 250C475 250 475 360 475 360;M475 250C475 250 475 360 475 360"/>
 </path>
 <animate keySplines="0 0 1 1;0 0 1 1;0 0.333333 1 0.666667;0 0 1 1;0 0 1 1" repeatCount="indefinite" attributeName="opacity" keyTimes="0;0.188;0.192;0.852;0.856;1" dur="5s" calcMode="spline" values="0;0;1;1;0;0"/>
</g>
   </g>
  </g>
 </g>
</g>
   </g>
   <g transform="translate(475 305)">
<g transform="translate(270.699 195)">
 <g transform="rotate(0)">
  <g transform="scale(1.4 1.4)">
   <g transform="skewX(0) skewY(0)">
<g transform="translate(-475 -305)">
 <path stroke-linecap="round" stroke="rgba(204, 204, 204, 1)" id="crta2" stroke-linejoin="round" fill-rule="evenodd" d="M0 0" fill="rgba(0, 0, 230, 1)" stroke-width="18">
  <animate keySplines="0 0 1 1;0 0 1 1;0 0 1 1" repeatCount="indefinite" attributeName="d" keyTimes="0;0.152;0.312;1" dur="5s" calcMode="spline" values="M475 250C475 250 474.99 252.481 474.99 252.481;M475 250C475 250 474.99 252.481 474.99 252.481;M475 250C475 250 475 360 475 360;M475 250C475 250 475 360 475 360"/>
 </path>
 <animate keySplines="0 0 1 1;0 0 1 1;0 0.333333 1 0.666667;0 0 1 1;0 0 1 1" repeatCount="indefinite" attributeName="opacity" keyTimes="0;0.148;0.152;0.804;0.808;1" dur="5s" calcMode="spline" values="0;0;1;1;0;0"/>
</g>
   </g>
  </g>
 </g>
</g>
   </g>
   <g transform="translate(475 305)">
<g transform="translate(148.108 -16.1403)">
 <g transform="rotate(120)">
  <g transform="scale(1.4 1.4)">
   <g transform="skewX(0) skewY(0)">
<g transform="translate(-475 -305)">
 <path stroke-linecap="round" stroke="rgba(204, 204, 204, 1)" id="crta1" stroke-linejoin="round" fill-rule="evenodd" d="M0 0" fill="rgba(0, 0, 230, 1)" stroke-width="18">
  <animate keySplines="0 0 1 1;0 0 1 1;0 0 1 1" repeatCount="indefinite" attributeName="d" keyTimes="0;0.112;0.272;1" dur="5s" calcMode="spline" values="M475.002 358.955C475.002 358.955 475 360 475 360;M475.002 358.955C475.002 358.955 475 360 475 360;M475 250C475 250 475 360 475 360;M475 250C475 250 475 360 475 360"/>
 </path>
 <animate keySplines="0 0 1 1;0 0 1 1;0 0.333333 1 0.666667;0 0 1 1;0 0 1 1" repeatCount="indefinite" attributeName="opacity" keyTimes="0;0.108;0.112;0.772;0.776;1" dur="5s" calcMode="spline" values="0;0;1;1;0;0"/>
</g>
   </g>
  </g>
 </g>
</g>
   </g>
   <g transform="translate(125 200)">
<g transform="translate(129.301 160)">
 <g transform="rotate(0)">
  <g>
   <animateTransform keySplines="0 0 1 1;0 0 1 1;0 0 1 1" type="scale" repeatCount="indefinite" attributeName="transform" keyTimes="0;0.192;0.312;1" dur="5s" calcMode="spline" values="0 1;0 1;1.4 1;1.4 1"/>
   <g>
<animateTransform keySplines="0 0 1 1;0 0 1 1;0 0 1 1" type="scale" repeatCount="indefinite" attributeName="transform" keyTimes="0;0.192;0.312;1" dur="5s" calcMode="spline" values="1 0;1 0;1 1.4;1 1.4"/>
<g transform="skewX(0) skewY(0)">
 <g transform="translate(-125 -200)">
  <path stroke-linecap="butt" stroke="none" id="krug6" stroke-linejoin="miter" fill-rule="evenodd" d="M175 200C175 227.614 152.614 250 125 250C97.3858 250 75 227.614 75 200C75 172.386 97.3858 150 125 150C152.614 150 175 172.386 175 200Z" fill="rgba(204, 204, 204, 1)" stroke-width="1"/>
  <animate keySplines="0 0 1 1;0 0 1 1;0 0 1 1" repeatCount="indefinite" attributeName="opacity" keyTimes="0;0.816;0.82;1" dur="5s" calcMode="spline" values="1;1;0;0"/>
 </g>
</g>
   </g>
  </g>
 </g>
</g>
   </g>
   <g transform="translate(299 100)">
<g transform="translate(-44.699 260)">
 <g transform="rotate(0)">
  <g>
   <animateTransform keySplines="0 0 1 1;0 0 1 1;0 0 1 1" type="scale" repeatCount="indefinite" attributeName="transform" keyTimes="0;0.232;0.312;1" dur="5s" calcMode="spline" values="0 1;0 1;2 1;2 1"/>
   <g>
<animateTransform keySplines="0 0 1 1;0 0 1 1;0 0 1 1" type="scale" repeatCount="indefinite" attributeName="transform" keyTimes="0;0.232;0.312;1" dur="5s" calcMode="spline" values="1 0;1 0;1 2;1 2"/>
<g transform="skewX(0) skewY(0)">
 <g transform="translate(-299 -100)">
  <path stroke-linecap="round" stroke="rgba(204, 204, 204, 1)" id="krug6b" stroke-linejoin="round" fill-rule="evenodd" d="M349 100C349 127.614 326.614 150 299 150C271.386 150 249 127.614 249 100C249 72.3858 271.386 50 299 50C326.614 50 349 72.3858 349 100Z" fill="rgba(255, 255, 255, 0)" stroke-width="3"/>
  <animate keySplines="0 0 1 1;0 0 1 1;0 0 1 1" repeatCount="indefinite" attributeName="opacity" keyTimes="0;0.272;0.312;1" dur="5s" calcMode="spline" values="1;1;0;0"/>
 </g>
</g>
   </g>
  </g>
 </g>
</g>
   </g>
   <g transform="translate(125 400)">
<g transform="translate(129.301 240)">
 <g transform="rotate(0)">
  <g>
   <animateTransform keySplines="0 0 1 1;0 0 1 1;0 0 1 1" type="scale" repeatCount="indefinite" attributeName="transform" keyTimes="0;0.152;0.272;1" dur="5s" calcMode="spline" values="0 1;0 1;1.4 1;1.4 1"/>
   <g>
<animateTransform keySplines="0 0 1 1;0 0 1 1;0 0 1 1" type="scale" repeatCount="indefinite" attributeName="transform" keyTimes="0;0.152;0.272;1" dur="5s" calcMode="spline" values="1 0;1 0;1 1.4;1 1.4"/>
<g transform="skewX(0) skewY(0)">
 <g transform="translate(-125 -400)">
  <path stroke-linecap="butt" stroke="none" id="krug5" stroke-linejoin="miter" fill-rule="evenodd" d="M175 400C175 427.614 152.614 450 125 450C97.3858 450 75 427.614 75 400C75 372.386 97.3858 350 125 350C152.614 350 175 372.386 175 400Z" fill="rgba(204, 204, 204, 1)" stroke-width="1"/>
  <animate keySplines="0 0 1 1;0 0 1 1;0 0 1 1" repeatCount="indefinite" attributeName="opacity" keyTimes="0;0.776;0.78;1" dur="5s" calcMode="spline" values="1;1;0;0"/>
 </g>
</g>
   </g>
  </g>
 </g>
</g>
   </g>
   <g transform="translate(299 100)">
<g transform="translate(-44.699 540)">
 <g transform="rotate(0)">
  <g>
   <animateTransform keySplines="0 0 1 1;0 0 1 1;0 0 1 1" type="scale" repeatCount="indefinite" attributeName="transform" keyTimes="0;0.192;0.272;1" dur="5s" calcMode="spline" values="0 1;0 1;2 1;2 1"/>
   <g>
<animateTransform keySplines="0 0 1 1;0 0 1 1;0 0 1 1" type="scale" repeatCount="indefinite" attributeName="transform" keyTimes="0;0.192;0.272;1" dur="5s" calcMode="spline" values="1 0;1 0;1 2;1 2"/>
<g transform="skewX(0) skewY(0)">
 <g transform="translate(-299 -100)">
  <path stroke-linecap="round" stroke="rgba(204, 204, 204, 1)" id="krug5b" stroke-linejoin="round" fill-rule="evenodd" d="M349 100C349 127.614 326.614 150 299 150C271.386 150 249 127.614 249 100C249 72.3858 271.386 50 299 50C326.614 50 349 72.3858 349 100Z" fill="rgba(255, 255, 255, 0)" stroke-width="3"/>
  <animate keySplines="0 0 1 1;0 0 1 1;0 0 1 1" repeatCount="indefinite" attributeName="opacity" keyTimes="0;0.232;0.272;1" dur="5s" calcMode="spline" values="1;1;0;0"/>
 </g>
</g>
   </g>
  </g>
 </g>
</g>
   </g>
   <g transform="translate(302 500)">
<g transform="translate(200.099 280)">
 <g transform="rotate(0)">
  <g>
   <animateTransform keySplines="0 0 1 1;0 0 1 1;0 0 1 1" type="scale" repeatCount="indefinite" attributeName="transform" keyTimes="0;0.112;0.232;1" dur="5s" calcMode="spline" values="0 1;0 1;1.4 1;1.4 1"/>
   <g>
<animateTransform keySplines="0 0 1 1;0 0 1 1;0 0 1 1" type="scale" repeatCount="indefinite" attributeName="transform" keyTimes="0;0.112;0.232;1" dur="5s" calcMode="spline" values="1 0;1 0;1 1.4;1 1.4"/>
<g transform="skewX(0) skewY(0)">
 <g transform="translate(-302 -500)">
  <path stroke-linecap="butt" stroke="none" id="krug4" stroke-linejoin="miter" fill-rule="evenodd" d="M350 500C350 527.614 327.614 550 300 550C272.386 550 250 527.614 250 500C250 472.386 272.386 450 300 450C327.614 450 350 472.386 350 500Z" fill="rgba(204, 204, 204, 1)" stroke-width="1"/>
  <animate keySplines="0 0 1 1;0 0 1 1;0 0 1 1" repeatCount="indefinite" attributeName="opacity" keyTimes="0;0.736;0.74;1" dur="5s" calcMode="spline" values="1;1;0;0"/>
 </g>
</g>
   </g>
  </g>
 </g>
</g>
   </g>
   <g transform="translate(299 100)">
<g transform="translate(200.299 680)">
 <g transform="rotate(0)">
  <g>
   <animateTransform keySplines="0 0 1 1;0 0 1 1;0 0 1 1" type="scale" repeatCount="indefinite" attributeName="transform" keyTimes="0;0.152;0.232;1" dur="5s" calcMode="spline" values="0 1;0 1;2 1;2 1"/>
   <g>
<animateTransform keySplines="0 0 1 1;0 0 1 1;0 0 1 1" type="scale" repeatCount="indefinite" attributeName="transform" keyTimes="0;0.152;0.232;1" dur="5s" calcMode="spline" values="1 0;1 0;1 2;1 2"/>
<g transform="skewX(0) skewY(0)">
 <g transform="translate(-299 -100)">
  <path stroke-linecap="round" stroke="rgba(204, 204, 204, 1)" id="krug4b" stroke-linejoin="round" fill-rule="evenodd" d="M349 100C349 127.614 326.614 150 299 150C271.386 150 249 127.614 249 100C249 72.3858 271.386 50 299 50C326.614 50 349 72.3858 349 100Z" fill="rgba(239, 47, 47, 0)" stroke-width="3"/>
  <animate keySplines="0 0 1 1;0 0 1 1;0 0 1 1" repeatCount="indefinite" attributeName="opacity" keyTimes="0;0.192;0.232;1" dur="5s" calcMode="spline" values="1;1;0;0"/>
 </g>
</g>
   </g>
  </g>
 </g>
</g>
   </g>
   <g transform="translate(475 400)">
<g transform="translate(270.699 240)">
 <g transform="rotate(0)">
  <g>
   <animateTransform keySplines="0 0 1 1;0 0 1 1;0 0 1 1" type="scale" repeatCount="indefinite" attributeName="transform" keyTimes="0;0.072;0.192;1" dur="5s" calcMode="spline" values="0 1;0 1;1.4 1;1.4 1"/>
   <g>
<animateTransform keySplines="0 0 1 1;0 0 1 1;0 0 1 1" type="scale" repeatCount="indefinite" attributeName="transform" keyTimes="0;0.072;0.192;1" dur="5s" calcMode="spline" values="1 0;1 0;1 1.4;1 1.4"/>
<g transform="skewX(0) skewY(0)">
 <g transform="translate(-475 -400)">
  <path stroke-linecap="butt" stroke="none" id="krug3" stroke-linejoin="miter" fill-rule="evenodd" d="M525 400C525 427.614 502.614 450 475 450C447.386 450 425 427.614 425 400C425 372.386 447.386 350 475 350C502.614 350 525 372.386 525 400Z" fill="rgba(204, 204, 204, 1)" stroke-width="1"/>
  <animate keySplines="0 0 1 1;0 0 1 1;0 0 1 1" repeatCount="indefinite" attributeName="opacity" keyTimes="0;0.696;0.7;1" dur="5s" calcMode="spline" values="1;1;0;0"/>
 </g>
</g>
   </g>
  </g>
 </g>
</g>
   </g>
   <g transform="translate(299 100)">
<g transform="translate(445.301 540)">
 <g transform="rotate(0)">
  <g>
   <animateTransform keySplines="0 0 1 1;0 0 1 1;0 0 1 1" type="scale" repeatCount="indefinite" attributeName="transform" keyTimes="0;0.112;0.192;1" dur="5s" calcMode="spline" values="0 1;0 1;2 1;2 1"/>
   <g>
<animateTransform keySplines="0 0 1 1;0 0 1 1;0 0 1 1" type="scale" repeatCount="indefinite" attributeName="transform" keyTimes="0;0.112;0.192;1" dur="5s" calcMode="spline" values="1 0;1 0;1 2;1 2"/>
<g transform="skewX(0) skewY(0)">
 <g transform="translate(-299 -100)">
  <path stroke-linecap="round" stroke="rgba(204, 204, 204, 1)" id="krug3b" stroke-linejoin="round" fill-rule="evenodd" d="M349 100C349 127.614 326.614 150 299 150C271.386 150 249 127.614 249 100C249 72.3858 271.386 50 299 50C326.614 50 349 72.3858 349 100Z" fill="rgba(255, 255, 255, 0)" stroke-width="3"/>
  <animate keySplines="0 0 1 1;0 0 1 1;0 0 1 1" repeatCount="indefinite" attributeName="opacity" keyTimes="0;0.152;0.192;1" dur="5s" calcMode="spline" values="1;1;0;0"/>
 </g>
</g>
   </g>
  </g>
 </g>
</g>
   </g>
   <g transform="translate(475 200)">
<g transform="translate(269.301 160)">
 <g transform="rotate(0)">
  <g>
   <animateTransform keySplines="0 0 1 1;0 0 1 1;0 0 1 1" type="scale" repeatCount="indefinite" attributeName="transform" keyTimes="0;0.032;0.152;1" dur="5s" calcMode="spline" values="0 1;0 1;1.4 1;1.4 1"/>
   <g>
<animateTransform keySplines="0 0 1 1;0 0 1 1;0 0 1 1" type="scale" repeatCount="indefinite" attributeName="transform" keyTimes="0;0.032;0.152;1" dur="5s" calcMode="spline" values="1 0;1 0;1 1.4;1 1.4"/>
<g transform="skewX(0) skewY(0)">
 <g transform="translate(-475 -200)">
  <path stroke-linecap="butt" stroke="none" id="krug2" stroke-linejoin="miter" fill-rule="evenodd" d="M525 200C525 227.614 502.614 250 475 250C447.386 250 425 227.614 425 200C425 172.386 447.386 150 475 150C502.614 150 525 172.386 525 200Z" fill="rgba(204, 204, 204, 1)" stroke-width="1"/>
  <animate keySplines="0 0 1 1;0 0 1 1;0 0 1 1" repeatCount="indefinite" attributeName="opacity" keyTimes="0;0.656;0.66;1" dur="5s" calcMode="spline" values="1;1;0;0"/>
 </g>
</g>
   </g>
  </g>
 </g>
</g>
   </g>
   <g transform="translate(299 100)">
<g transform="translate(445.301 260)">
 <g transform="rotate(0)">
  <g>
   <animateTransform keySplines="0 0 1 1;0 0 1 1;0 0 1 1" type="scale" repeatCount="indefinite" attributeName="transform" keyTimes="0;0.072;0.152;1" dur="5s" calcMode="spline" values="0 1;0 1;2 1;2 1"/>
   <g>
<animateTransform keySplines="0 0 1 1;0 0 1 1;0 0 1 1" type="scale" repeatCount="indefinite" attributeName="transform" keyTimes="0;0.072;0.152;1" dur="5s" calcMode="spline" values="1 0;1 0;1 2;1 2"/>
<g transform="skewX(0) skewY(0)">
 <g transform="translate(-299 -100)">
  <path stroke-linecap="round" stroke="rgba(204, 204, 204, 1)" id="krug2b" stroke-linejoin="round" fill-rule="evenodd" d="M349 100C349 127.614 326.614 150 299 150C271.386 150 249 127.614 249 100C249 72.3858 271.386 50 299 50C326.614 50 349 72.3858 349 100Z" fill="rgba(255, 255, 255, 0)" stroke-width="3"/>
  <animate keySplines="0 0 1 1;0 0 1 1;0 0 1 1" repeatCount="indefinite" attributeName="opacity" keyTimes="0;0.112;0.152;1" dur="5s" calcMode="spline" values="1;1;0;0"/>
 </g>
</g>
   </g>
  </g>
 </g>
</g>
   </g>
   <g transform="translate(299 100)">
<g transform="translate(198.901 120)">
 <g transform="rotate(0)">
  <g>
   <animateTransform keySplines="0 0 1 1;0 0 1 1;0 0 1 1" type="scale" repeatCount="indefinite" attributeName="transform" keyTimes="0;0;0.112;1" dur="5s" calcMode="spline" values="0 1;0 1;1.4 1;1.4 1"/>
   <g>
<animateTransform keySplines="0 0 1 1;0 0 1 1;0 0 1 1" type="scale" repeatCount="indefinite" attributeName="transform" keyTimes="0;0;0.112;1" dur="5s" calcMode="spline" values="1 0;1 0;1 1.4;1 1.4"/>
<g transform="skewX(0) skewY(0)">
 <g transform="translate(-299 -100)">
  <path stroke-linecap="butt" stroke="none" id="krug1" stroke-linejoin="miter" fill-rule="evenodd" d="M349 100C349 127.614 326.614 150 299 150C271.386 150 249 127.614 249 100C249 72.3858 271.386 50 299 50C326.614 50 349 72.3858 349 100Z" fill="rgba(204, 204, 204, 1)" stroke-width="1"/>
  <animate keySplines="0 0 1 1;0 0 1 1;0 0 1 1" repeatCount="indefinite" attributeName="opacity" keyTimes="0;0.616;0.62;1" dur="5s" calcMode="spline" values="1;1;0;0"/>
 </g>
</g>
   </g>
  </g>
 </g>
</g>
   </g>
   <g transform="translate(299 100)">
<g transform="translate(198.901 120)">
 <g transform="rotate(0)">
  <g>
   <animateTransform keySplines="0 0 1 1;0 0 1 1;0 0 1 1" type="scale" repeatCount="indefinite" attributeName="transform" keyTimes="0;0.032;0.112;1" dur="5s" calcMode="spline" values="0 1;0 1;2 1;2 1"/>
   <g>
<animateTransform keySplines="0 0 1 1;0 0 1 1;0 0 1 1" type="scale" repeatCount="indefinite" attributeName="transform" keyTimes="0;0.032;0.112;1" dur="5s" calcMode="spline" values="1 0;1 0;1 2;1 2"/>
<g transform="skewX(0) skewY(0)">
 <g transform="translate(-299 -100)">
  <path stroke-linecap="round" stroke="rgba(204, 204, 204, 1)" id="krug1b" stroke-linejoin="round" fill-rule="evenodd" d="M349 100C349 127.614 326.614 150 299 150C271.386 150 249 127.614 249 100C249 72.3858 271.386 50 299 50C326.614 50 349 72.3858 349 100Z" fill="rgba(255, 255, 255, 0)" stroke-width="3"/>
  <animate keySplines="0 0 1 1;0 0 1 1;0 0 1 1" repeatCount="indefinite" attributeName="opacity" keyTimes="0;0.072;0.112;1" dur="5s" calcMode="spline" values="1;1;0;0"/>
 </g>
</g>
   </g>
  </g>
 </g>
</g>
   </g>
  </g>
 </g>
</g>
   </g>
  </g>
 </g>
</g>
<g transform="translate(499.301 500)">
 <g transform="translate(0 0)">
  <g transform="rotate(0)">
   <g transform="scale(1 1)">
<g transform="skewX(0) skewY(0)">
 <g opacity="1" transform="translate(-499.301 -500)">
  <g id="Group">
   <g transform="translate(475 305)">
<g transform="translate(-96.6564 -16.8239)">
 <g transform="rotate(-120)">
  <g transform="scale(1.4 1.4)">
   <g transform="skewX(0) skewY(0)">
<g transform="translate(-475 -305)">
 <path stroke-linecap="round" stroke="rgba(20, 20, 20, 1)" id="crta6" stroke-linejoin="round" fill-rule="evenodd" d="M0 0" fill="rgba(0, 0, 230, 1)" stroke-width="18">
  <animate keySplines="0 0 1 1;0 0 1 1;0 0 1 1" repeatCount="indefinite" attributeName="d" keyTimes="0;0.816;0.976;1" dur="5s" calcMode="spline" values="M475 250C475 250 475.012 251.111 475.012 251.111;M475 250C475 250 475.012 251.111 475.012 251.111;M475 250C475 250 475 360 475 360;M475 250C475 250 475 360 475 360"/>
 </path>
 <animate keySplines="0 0 1 1;0 0 1 1;0 0 1 1" repeatCount="indefinite" attributeName="opacity" keyTimes="0;0.812;0.816;1" dur="5s" calcMode="spline" values="0;0;1;1"/>
</g>
   </g>
  </g>
 </g>
</g>
   </g>
   <g transform="translate(125 295)">
<g transform="translate(130.699 205)">
 <g transform="rotate(0)">
  <g transform="scale(1.4 1.4)">
   <g transform="skewX(0) skewY(0)">
<g transform="translate(-125 -295)">
 <path stroke-linecap="round" stroke="rgba(20, 20, 20, 1)" id="crta5" stroke-linejoin="round" fill-rule="evenodd" d="M0 0" fill="rgba(0, 0, 230, 1)" stroke-width="18">
  <animate keySplines="0 0 1 1;0 0 1 1;0 0 1 1" repeatCount="indefinite" attributeName="d" keyTimes="0;0.776;0.936;1" dur="5s" calcMode="spline" values="M125.021 347.549C125.021 347.549 125 350 125 350;M125.021 347.549C125.021 347.549 125 350 125 350;M125 240C125 240 125 350 125 350;M125 240C125 240 125 350 125 350"/>
 </path>
 <animate keySplines="0 0 1 1;0 0 1 1;0 0 1 1" repeatCount="indefinite" attributeName="opacity" keyTimes="0;0.772;0.776;1" dur="5s" calcMode="spline" values="0;0;1;1"/>
</g>
   </g>
  </g>
 </g>
</g>
   </g>
   <g transform="translate(475 305)">
<g transform="translate(-99.4606 404.081)">
 <g transform="rotate(120)">
  <g transform="scale(1.4 1.4)">
   <g transform="skewX(0) skewY(0)">
<g transform="translate(-475 -305)">
 <path stroke-linecap="round" stroke="rgba(20, 20, 20, 1)" id="crta4" stroke-linejoin="round" fill-rule="evenodd" d="M0 0" fill="rgba(0, 0, 230, 1)" stroke-width="18">
  <animate keySplines="0 0 1 1;0 0 1 1;0 0 1 1" repeatCount="indefinite" attributeName="d" keyTimes="0;0.736;0.896;1" dur="5s" calcMode="spline" values="M475 250C475 250 474.989 252.038 474.989 252.038;M475 250C475 250 474.989 252.038 474.989 252.038;M475 250C475 250 475 360 475 360;M475 250C475 250 475 360 475 360"/>
 </path>
 <animate keySplines="0 0 1 1;0 0 1 1;0 0 1 1" repeatCount="indefinite" attributeName="opacity" keyTimes="0;0.732;0.736;1" dur="5s" calcMode="spline" values="0;0;1;1"/>
</g>
   </g>
  </g>
 </g>
</g>
   </g>
   <g transform="translate(475 305)">
<g transform="translate(151.061 404.184)">
 <g transform="rotate(-120)">
  <g transform="scale(1.4 1.4)">
   <g transform="skewX(0) skewY(0)">
<g transform="translate(-475 -305)">
 <path stroke-linecap="round" stroke="rgba(20, 20, 20, 1)" id="crta3" stroke-linejoin="round" fill-rule="evenodd" d="M0 0" fill="rgba(0, 0, 230, 1)" stroke-width="18">
  <animate keySplines="0 0 1 1;0 0 1 1;0 0 1 1" repeatCount="indefinite" attributeName="d" keyTimes="0;0.696;0.856;1" dur="5s" calcMode="spline" values="M474.918 357.816C474.918 357.816 475 360 475 360;M474.918 357.816C474.918 357.816 475 360 475 360;M475 250C475 250 475 360 475 360;M475 250C475 250 475 360 475 360"/>
 </path>
 <animate keySplines="0 0 1 1;0 0 1 1;0 0 1 1" repeatCount="indefinite" attributeName="opacity" keyTimes="0;0.692;0.696;1" dur="5s" calcMode="spline" values="0;0;1;1"/>
</g>
   </g>
  </g>
 </g>
</g>
   </g>
   <g transform="translate(475 305)">
<g transform="translate(270.699 195)">
 <g transform="rotate(0)">
  <g transform="scale(1.4 1.4)">
   <g transform="skewX(0) skewY(0)">
<g transform="translate(-475 -305)">
 <path stroke-linecap="round" stroke="rgba(20, 20, 20, 1)" id="crta2" stroke-linejoin="round" fill-rule="evenodd" d="M0 0" fill="rgba(0, 0, 230, 1)" stroke-width="18">
  <animate keySplines="0 0 1 1;0 0 1 1;0 0 1 1" repeatCount="indefinite" attributeName="d" keyTimes="0;0.656;0.816;1" dur="5s" calcMode="spline" values="M475 250C475 250 474.99 252.481 474.99 252.481;M475 250C475 250 474.99 252.481 474.99 252.481;M475 250C475 250 475 360 475 360;M475 250C475 250 475 360 475 360"/>
 </path>
 <animate keySplines="0 0 1 1;0 0 1 1;0 0 1 1" repeatCount="indefinite" attributeName="opacity" keyTimes="0;0.652;0.656;1" dur="5s" calcMode="spline" values="0;0;1;1"/>
</g>
   </g>
  </g>
 </g>
</g>
   </g>
   <g transform="translate(475 305)">
<g transform="translate(148.108 -16.1403)">
 <g transform="rotate(120)">
  <g transform="scale(1.4 1.4)">
   <g transform="skewX(0) skewY(0)">
<g transform="translate(-475 -305)">
 <path stroke-linecap="round" stroke="rgba(20, 20, 20, 1)" id="crta1" stroke-linejoin="round" fill-rule="evenodd" d="M0 0" fill="rgba(0, 0, 230, 1)" stroke-width="18">
  <animate keySplines="0 0 1 1;0 0 1 1;0 0 1 1" repeatCount="indefinite" attributeName="d" keyTimes="0;0.616;0.776;1" dur="5s" calcMode="spline" values="M475.002 358.955C475.002 358.955 475 360 475 360;M475.002 358.955C475.002 358.955 475 360 475 360;M475 250C475 250 475 360 475 360;M475 250C475 250 475 360 475 360"/>
 </path>
 <animate keySplines="0 0 1 1;0 0 1 1;0 0 1 1" repeatCount="indefinite" attributeName="opacity" keyTimes="0;0.612;0.616;1" dur="5s" calcMode="spline" values="0;0;1;1"/>
</g>
   </g>
  </g>
 </g>
</g>
   </g>
   <g transform="translate(125 200)">
<g transform="translate(129.301 160)">
 <g transform="rotate(0)">
  <g>
   <animateTransform keySplines="0 0 1 1;0 0 1 1;0 0 1 1" type="scale" repeatCount="indefinite" attributeName="transform" keyTimes="0;0.696;0.816;1" dur="5s" calcMode="spline" values="0 1;0 1;1.4 1;1.4 1"/>
   <g>
<animateTransform keySplines="0 0 1 1;0 0 1 1;0 0 1 1" type="scale" repeatCount="indefinite" attributeName="transform" keyTimes="0;0.696;0.816;1" dur="5s" calcMode="spline" values="1 0;1 0;1 1.4;1 1.4"/>
<g transform="skewX(0) skewY(0)">
 <g opacity="1" transform="translate(-125 -200)">
  <path stroke-linecap="butt" stroke="none" id="krug6" stroke-linejoin="miter" fill-rule="evenodd" d="M175 200C175 227.614 152.614 250 125 250C97.3858 250 75 227.614 75 200C75 172.386 97.3858 150 125 150C152.614 150 175 172.386 175 200Z" fill="rgba(20, 20, 20, 1)" stroke-width="1"/>
 </g>
</g>
   </g>
  </g>
 </g>
</g>
   </g>
   <g transform="translate(299 100)">
<g transform="translate(-44.699 260)">
 <g transform="rotate(0)">
  <g>
   <animateTransform keySplines="0 0 1 1;0 0 1 1;0 0 1 1" type="scale" repeatCount="indefinite" attributeName="transform" keyTimes="0;0.736;0.816;1" dur="5s" calcMode="spline" values="0 1;0 1;2 1;2 1"/>
   <g>
<animateTransform keySplines="0 0 1 1;0 0 1 1;0 0 1 1" type="scale" repeatCount="indefinite" attributeName="transform" keyTimes="0;0.736;0.816;1" dur="5s" calcMode="spline" values="1 0;1 0;1 2;1 2"/>
<g transform="skewX(0) skewY(0)">
 <g transform="translate(-299 -100)">
  <path stroke-linecap="round" stroke="rgba(20, 20, 20, 1)" id="krug6b0" stroke-linejoin="round" fill-rule="evenodd" d="M349 100C349 127.614 326.614 150 299 150C271.386 150 249 127.614 249 100C249 72.3858 271.386 50 299 50C326.614 50 349 72.3858 349 100Z" fill="rgba(255, 255, 255, 0)" stroke-width="3"/>
  <animate keySplines="0 0 1 1;0 0 1 1;0 0 1 1" repeatCount="indefinite" attributeName="opacity" keyTimes="0;0.776;0.816;1" dur="5s" calcMode="spline" values="1;1;0;0"/>
 </g>
</g>
   </g>
  </g>
 </g>
</g>
   </g>
   <g transform="translate(125 400)">
<g transform="translate(129.301 240)">
 <g transform="rotate(0)">
  <g>
   <animateTransform keySplines="0 0 1 1;0 0 1 1;0 0 1 1" type="scale" repeatCount="indefinite" attributeName="transform" keyTimes="0;0.656;0.776;1" dur="5s" calcMode="spline" values="0 1;0 1;1.4 1;1.4 1"/>
   <g>
<animateTransform keySplines="0 0 1 1;0 0 1 1;0 0 1 1" type="scale" repeatCount="indefinite" attributeName="transform" keyTimes="0;0.656;0.776;1" dur="5s" calcMode="spline" values="1 0;1 0;1 1.4;1 1.4"/>
<g transform="skewX(0) skewY(0)">
 <g opacity="1" transform="translate(-125 -400)">
  <path stroke-linecap="butt" stroke="none" id="krug5" stroke-linejoin="miter" fill-rule="evenodd" d="M175 400C175 427.614 152.614 450 125 450C97.3858 450 75 427.614 75 400C75 372.386 97.3858 350 125 350C152.614 350 175 372.386 175 400Z" fill="rgba(20, 20, 20, 1)" stroke-width="1"/>
 </g>
</g>
   </g>
  </g>
 </g>
</g>
   </g>
   <g transform="translate(299 100)">
<g transform="translate(-44.699 540)">
 <g transform="rotate(0)">
  <g>
   <animateTransform keySplines="0 0 1 1;0 0 1 1;0 0 1 1" type="scale" repeatCount="indefinite" attributeName="transform" keyTimes="0;0.696;0.776;1" dur="5s" calcMode="spline" values="0 1;0 1;2 1;2 1"/>
   <g>
<animateTransform keySplines="0 0 1 1;0 0 1 1;0 0 1 1" type="scale" repeatCount="indefinite" attributeName="transform" keyTimes="0;0.696;0.776;1" dur="5s" calcMode="spline" values="1 0;1 0;1 2;1 2"/>
<g transform="skewX(0) skewY(0)">
 <g transform="translate(-299 -100)">
  <path stroke-linecap="round" stroke="rgba(20, 20, 20, 1)" id="krug5b" stroke-linejoin="round" fill-rule="evenodd" d="M349 100C349 127.614 326.614 150 299 150C271.386 150 249 127.614 249 100C249 72.3858 271.386 50 299 50C326.614 50 349 72.3858 349 100Z" fill="rgba(255, 255, 255, 0)" stroke-width="3"/>
  <animate keySplines="0 0 1 1;0 0 1 1;0 0 1 1" repeatCount="indefinite" attributeName="opacity" keyTimes="0;0.736;0.776;1" dur="5s" calcMode="spline" values="1;1;0;0"/>
 </g>
</g>
   </g>
  </g>
 </g>
</g>
   </g>
   <g transform="translate(302 500)">
<g transform="translate(200.099 280)">
 <g transform="rotate(0)">
  <g>
   <animateTransform keySplines="0 0 1 1;0 0 1 1;0 0 1 1" type="scale" repeatCount="indefinite" attributeName="transform" keyTimes="0;0.616;0.736;1" dur="5s" calcMode="spline" values="0 1;0 1;1.4 1;1.4 1"/>
   <g>
<animateTransform keySplines="0 0 1 1;0 0 1 1;0 0 1 1" type="scale" repeatCount="indefinite" attributeName="transform" keyTimes="0;0.616;0.736;1" dur="5s" calcMode="spline" values="1 0;1 0;1 1.4;1 1.4"/>
<g transform="skewX(0) skewY(0)">
 <g opacity="1" transform="translate(-302 -500)">
  <path stroke-linecap="butt" stroke="none" id="krug4" stroke-linejoin="miter" fill-rule="evenodd" d="M350 500C350 527.614 327.614 550 300 550C272.386 550 250 527.614 250 500C250 472.386 272.386 450 300 450C327.614 450 350 472.386 350 500Z" fill="rgba(20, 20, 20, 1)" stroke-width="1"/>
 </g>
</g>
   </g>
  </g>
 </g>
</g>
   </g>
   <g transform="translate(299 100)">
<g transform="translate(200.299 680)">
 <g transform="rotate(0)">
  <g>
   <animateTransform keySplines="0 0 1 1;0 0 1 1;0 0 1 1" type="scale" repeatCount="indefinite" attributeName="transform" keyTimes="0;0.656;0.736;1" dur="5s" calcMode="spline" values="0 1;0 1;2 1;2 1"/>
   <g>
<animateTransform keySplines="0 0 1 1;0 0 1 1;0 0 1 1" type="scale" repeatCount="indefinite" attributeName="transform" keyTimes="0;0.656;0.736;1" dur="5s" calcMode="spline" values="1 0;1 0;1 2;1 2"/>
<g transform="skewX(0) skewY(0)">
 <g transform="translate(-299 -100)">
  <path stroke-linecap="round" stroke="rgba(20, 20, 20, 1)" id="krug4b" stroke-linejoin="round" fill-rule="evenodd" d="M349 100C349 127.614 326.614 150 299 150C271.386 150 249 127.614 249 100C249 72.3858 271.386 50 299 50C326.614 50 349 72.3858 349 100Z" fill="rgba(239, 47, 47, 0)" stroke-width="3"/>
  <animate keySplines="0 0 1 1;0 0 1 1;0 0 1 1" repeatCount="indefinite" attributeName="opacity" keyTimes="0;0.696;0.736;1" dur="5s" calcMode="spline" values="1;1;0;0"/>
 </g>
</g>
   </g>
  </g>
 </g>
</g>
   </g>
   <g transform="translate(475 400)">
<g transform="translate(270.699 240)">
 <g transform="rotate(0)">
  <g>
   <animateTransform keySplines="0 0 1 1;0 0 1 1;0 0 1 1" type="scale" repeatCount="indefinite" attributeName="transform" keyTimes="0;0.576;0.696;1" dur="5s" calcMode="spline" values="0 1;0 1;1.4 1;1.4 1"/>
   <g>
<animateTransform keySplines="0 0 1 1;0 0 1 1;0 0 1 1" type="scale" repeatCount="indefinite" attributeName="transform" keyTimes="0;0.576;0.696;1" dur="5s" calcMode="spline" values="1 0;1 0;1 1.4;1 1.4"/>
<g transform="skewX(0) skewY(0)">
 <g opacity="1" transform="translate(-475 -400)">
  <path stroke-linecap="butt" stroke="none" id="krug3" stroke-linejoin="miter" fill-rule="evenodd" d="M525 400C525 427.614 502.614 450 475 450C447.386 450 425 427.614 425 400C425 372.386 447.386 350 475 350C502.614 350 525 372.386 525 400Z" fill="rgba(20, 20, 20, 1)" stroke-width="1"/>
 </g>
</g>
   </g>
  </g>
 </g>
</g>
   </g>
   <g transform="translate(299 100)">
<g transform="translate(445.301 540)">
 <g transform="rotate(0)">
  <g>
   <animateTransform keySplines="0 0 1 1;0 0 1 1;0 0 1 1" type="scale" repeatCount="indefinite" attributeName="transform" keyTimes="0;0.616;0.696;1" dur="5s" calcMode="spline" values="0 1;0 1;2 1;2 1"/>
   <g>
<animateTransform keySplines="0 0 1 1;0 0 1 1;0 0 1 1" type="scale" repeatCount="indefinite" attributeName="transform" keyTimes="0;0.616;0.696;1" dur="5s" calcMode="spline" values="1 0;1 0;1 2;1 2"/>
<g transform="skewX(0) skewY(0)">
 <g transform="translate(-299 -100)">
  <path stroke-linecap="round" stroke="rgba(20, 20, 20, 1)" id="krug3b" stroke-linejoin="round" fill-rule="evenodd" d="M349 100C349 127.614 326.614 150 299 150C271.386 150 249 127.614 249 100C249 72.3858 271.386 50 299 50C326.614 50 349 72.3858 349 100Z" fill="rgba(255, 255, 255, 0)" stroke-width="3"/>
  <animate keySplines="0 0 1 1;0 0 1 1;0 0 1 1" repeatCount="indefinite" attributeName="opacity" keyTimes="0;0.656;0.696;1" dur="5s" calcMode="spline" values="1;1;0;0"/>
 </g>
</g>
   </g>
  </g>
 </g>
</g>
   </g>
   <g transform="translate(475 200)">
<g transform="translate(269.301 160)">
 <g transform="rotate(0)">
  <g>
   <animateTransform keySplines="0 0 1 1;0 0 1 1;0 0 1 1" type="scale" repeatCount="indefinite" attributeName="transform" keyTimes="0;0.536;0.656;1" dur="5s" calcMode="spline" values="0 1;0 1;1.4 1;1.4 1"/>
   <g>
<animateTransform keySplines="0 0 1 1;0 0 1 1;0 0 1 1" type="scale" repeatCount="indefinite" attributeName="transform" keyTimes="0;0.536;0.656;1" dur="5s" calcMode="spline" values="1 0;1 0;1 1.4;1 1.4"/>
<g transform="skewX(0) skewY(0)">
 <g opacity="1" transform="translate(-475 -200)">
  <path stroke-linecap="butt" stroke="none" id="krug2" stroke-linejoin="miter" fill-rule="evenodd" d="M525 200C525 227.614 502.614 250 475 250C447.386 250 425 227.614 425 200C425 172.386 447.386 150 475 150C502.614 150 525 172.386 525 200Z" fill="rgba(20, 20, 20, 1)" stroke-width="1"/>
 </g>
</g>
   </g>
  </g>
 </g>
</g>
   </g>
   <g transform="translate(299 100)">
<g transform="translate(445.301 260)">
 <g transform="rotate(0)">
  <g>
   <animateTransform keySplines="0 0 1 1;0 0 1 1;0 0 1 1" type="scale" repeatCount="indefinite" attributeName="transform" keyTimes="0;0.576;0.656;1" dur="5s" calcMode="spline" values="0 1;0 1;2 1;2 1"/>
   <g>
<animateTransform keySplines="0 0 1 1;0 0 1 1;0 0 1 1" type="scale" repeatCount="indefinite" attributeName="transform" keyTimes="0;0.576;0.656;1" dur="5s" calcMode="spline" values="1 0;1 0;1 2;1 2"/>
<g transform="skewX(0) skewY(0)">
 <g transform="translate(-299 -100)">
  <path stroke-linecap="round" stroke="rgba(20, 20, 20, 1)" id="krug2b" stroke-linejoin="round" fill-rule="evenodd" d="M349 100C349 127.614 326.614 150 299 150C271.386 150 249 127.614 249 100C249 72.3858 271.386 50 299 50C326.614 50 349 72.3858 349 100Z" fill="rgba(255, 255, 255, 0)" stroke-width="3"/>
  <animate keySplines="0 0 1 1;0 0 1 1;0 0 1 1" repeatCount="indefinite" attributeName="opacity" keyTimes="0;0.616;0.656;1" dur="5s" calcMode="spline" values="1;1;0;0"/>
 </g>
</g>
   </g>
  </g>
 </g>
</g>
   </g>
   <g transform="translate(299 100)">
<g transform="translate(198.901 120)">
 <g transform="rotate(0)">
  <g>
   <animateTransform keySplines="0 0 1 1;0 0 1 1;0 0 1 1" type="scale" repeatCount="indefinite" attributeName="transform" keyTimes="0;0.504;0.616;1" dur="5s" calcMode="spline" values="0 1;0 1;1.4 1;1.4 1"/>
   <g>
<animateTransform keySplines="0 0 1 1;0 0 1 1;0 0 1 1" type="scale" repeatCount="indefinite" attributeName="transform" keyTimes="0;0.504;0.616;1" dur="5s" calcMode="spline" values="1 0;1 0;1 1.4;1 1.4"/>
<g transform="skewX(0) skewY(0)">
 <g opacity="1" transform="translate(-299 -100)">
  <path stroke-linecap="butt" stroke="none" id="krug1" stroke-linejoin="miter" fill-rule="evenodd" d="M349 100C349 127.614 326.614 150 299 150C271.386 150 249 127.614 249 100C249 72.3858 271.386 50 299 50C326.614 50 349 72.3858 349 100Z" fill="rgba(20, 20, 20, 1)" stroke-width="1"/>
 </g>
</g>
   </g>
  </g>
 </g>
</g>
   </g>
   <g transform="translate(299 100)">
<g transform="translate(198.901 120)">
 <g transform="rotate(0)">
  <g>
   <animateTransform keySplines="0 0 1 1;0 0 1 1;0 0 1 1" type="scale" repeatCount="indefinite" attributeName="transform" keyTimes="0;0.536;0.616;1" dur="5s" calcMode="spline" values="0 1;0 1;2 1;2 1"/>
   <g>
<animateTransform keySplines="0 0 1 1;0 0 1 1;0 0 1 1" type="scale" repeatCount="indefinite" attributeName="transform" keyTimes="0;0.536;0.616;1" dur="5s" calcMode="spline" values="1 0;1 0;1 2;1 2"/>
<g transform="skewX(0) skewY(0)">
 <g transform="translate(-299 -100)">
  <path stroke-linecap="round" stroke="rgba(20, 20, 20, 1)" id="krug1b" stroke-linejoin="round" fill-rule="evenodd" d="M349 100C349 127.614 326.614 150 299 150C271.386 150 249 127.614 249 100C249 72.3858 271.386 50 299 50C326.614 50 349 72.3858 349 100Z" fill="rgba(255, 255, 255, 0)" stroke-width="3"/>
  <animate keySplines="0 0 1 1;0 0 1 1;0 0 1 1" repeatCount="indefinite" attributeName="opacity" keyTimes="0;0.576;0.616;1" dur="5s" calcMode="spline" values="1;1;0;0"/>
 </g>
</g>
   </g>
  </g>
 </g>
</g>
   </g>
   <g transform="translate(475 305)">
<g transform="translate(270.699 195)">
 <g transform="rotate(0)">
  <g transform="scale(1.4 1.4)">
   <g transform="skewX(0) skewY(0)">
<g transform="translate(-475 -305)">
 <path stroke-linecap="round" stroke="rgba(20, 20, 20, 1)" id="crta0" stroke-linejoin="round" fill-rule="evenodd" d="M0 0" fill="rgba(0, 0, 230, 1)" stroke-width="18">
  <animate keySplines="0 0 1 1;0 0 1 1;0 0 1 1" repeatCount="indefinite" attributeName="d" keyTimes="0;0.656;0.816;1" dur="5s" calcMode="spline" values="M475 250C475 250 474.99 252.481 474.99 252.481;M475 250C475 250 474.99 252.481 474.99 252.481;M475 250C475 250 475 360 475 360;M475 250C475 250 475 360 475 360"/>
 </path>
 <animate keySplines="0 0 1 1;0 0 1 1;0 0 1 1" repeatCount="indefinite" attributeName="opacity" keyTimes="0;0.652;0.656;1" dur="5s" calcMode="spline" values="0;0;1;1"/>
</g>
   </g>
  </g>
 </g>
</g>
   </g>
   <g transform="translate(299 100)">
<g transform="translate(445.301 540)">
 <g transform="rotate(0)">
  <g>
   <animateTransform keySplines="0 0 1 1;0 0 1 1;0 0 1 1" type="scale" repeatCount="indefinite" attributeName="transform" keyTimes="0;0.616;0.696;1" dur="5s" calcMode="spline" values="0 1;0 1;2 1;2 1"/>
   <g>
<animateTransform keySplines="0 0 1 1;0 0 1 1;0 0 1 1" type="scale" repeatCount="indefinite" attributeName="transform" keyTimes="0;0.616;0.696;1" dur="5s" calcMode="spline" values="1 0;1 0;1 2;1 2"/>
<g transform="skewX(0) skewY(0)">
 <g transform="translate(-299 -100)">
  <path stroke-linecap="round" stroke="rgba(20, 20, 20, 1)" id="krug3b0" stroke-linejoin="round" fill-rule="evenodd" d="M349 100C349 127.614 326.614 150 299 150C271.386 150 249 127.614 249 100C249 72.3858 271.386 50 299 50C326.614 50 349 72.3858 349 100Z" fill="rgba(255, 255, 255, 0)" stroke-width="3"/>
  <animate keySplines="0 0 1 1;0 0 1 1;0 0 1 1" repeatCount="indefinite" attributeName="opacity" keyTimes="0;0.656;0.696;1" dur="5s" calcMode="spline" values="1;1;0;0"/>
 </g>
</g>
   </g>
  </g>
 </g>
</g>
   </g>
   <g transform="translate(299 100)">
<g transform="translate(445.301 260)">
 <g transform="rotate(0)">
  <g>
   <animateTransform keySplines="0 0 1 1;0 0 1 1;0 0 1 1" type="scale" repeatCount="indefinite" attributeName="transform" keyTimes="0;0.576;0.656;1" dur="5s" calcMode="spline" values="0 1;0 1;2 1;2 1"/>
   <g>
<animateTransform keySplines="0 0 1 1;0 0 1 1;0 0 1 1" type="scale" repeatCount="indefinite" attributeName="transform" keyTimes="0;0.576;0.656;1" dur="5s" calcMode="spline" values="1 0;1 0;1 2;1 2"/>
<g transform="skewX(0) skewY(0)">
 <g transform="translate(-299 -100)">
  <path stroke-linecap="round" stroke="rgba(20, 20, 20, 1)" id="krug2b0" stroke-linejoin="round" fill-rule="evenodd" d="M349 100C349 127.614 326.614 150 299 150C271.386 150 249 127.614 249 100C249 72.3858 271.386 50 299 50C326.614 50 349 72.3858 349 100Z" fill="rgba(255, 255, 255, 0)" stroke-width="3"/>
  <animate keySplines="0 0 1 1;0 0 1 1;0 0 1 1" repeatCount="indefinite" attributeName="opacity" keyTimes="0;0.616;0.656;1" dur="5s" calcMode="spline" values="1;1;0;0"/>
 </g>
</g>
   </g>
  </g>
 </g>
</g>
   </g>
   <g transform="translate(475 305)">
<g transform="translate(270.699 195)">
 <g transform="rotate(0)">
  <g transform="scale(1.4 1.4)">
   <g transform="skewX(0) skewY(0)">
<g transform="translate(-475 -305)">
 <path stroke-linecap="round" stroke="rgba(20, 20, 20, 1)" id="crta1" stroke-linejoin="round" fill-rule="evenodd" d="M0 0" fill="rgba(0, 0, 230, 1)" stroke-width="18">
  <animate keySplines="0 0 1 1;0 0 1 1;0 0 1 1" repeatCount="indefinite" attributeName="d" keyTimes="0;0.656;0.816;1" dur="5s" calcMode="spline" values="M475 250C475 250 474.99 252.481 474.99 252.481;M475 250C475 250 474.99 252.481 474.99 252.481;M475 250C475 250 475 360 475 360;M475 250C475 250 475 360 475 360"/>
 </path>
 <animate keySplines="0 0 1 1;0 0 1 1;0 0 1 1" repeatCount="indefinite" attributeName="opacity" keyTimes="0;0.652;0.656;1" dur="5s" calcMode="spline" values="0;0;1;1"/>
</g>
   </g>
  </g>
 </g>
</g>
   </g>
   <g transform="translate(299 100)">
<g transform="translate(445.301 540)">
 <g transform="rotate(0)">
  <g>
   <animateTransform keySplines="0 0 1 1;0 0 1 1;0 0 1 1" type="scale" repeatCount="indefinite" attributeName="transform" keyTimes="0;0.616;0.696;1" dur="5s" calcMode="spline" values="0 1;0 1;2 1;2 1"/>
   <g>
<animateTransform keySplines="0 0 1 1;0 0 1 1;0 0 1 1" type="scale" repeatCount="indefinite" attributeName="transform" keyTimes="0;0.616;0.696;1" dur="5s" calcMode="spline" values="1 0;1 0;1 2;1 2"/>
<g transform="skewX(0) skewY(0)">
 <g transform="translate(-299 -100)">
  <path stroke-linecap="round" stroke="rgba(20, 20, 20, 1)" id="krug3b1" stroke-linejoin="round" fill-rule="evenodd" d="M349 100C349 127.614 326.614 150 299 150C271.386 150 249 127.614 249 100C249 72.3858 271.386 50 299 50C326.614 50 349 72.3858 349 100Z" fill="rgba(255, 255, 255, 0)" stroke-width="3"/>
  <animate keySplines="0 0 1 1;0 0 1 1;0 0 1 1" repeatCount="indefinite" attributeName="opacity" keyTimes="0;0.656;0.696;1" dur="5s" calcMode="spline" values="1;1;0;0"/>
 </g>
</g>
   </g>
  </g>
 </g>
</g>
   </g>
  </g>
 </g>
</g>
   </g>
  </g>
 </g>
</g>
   </g>
  </g>
 </g>
</g>
   </g>
  </g>
 </g>
 <defs/>
</svg>
